<?xml version="1.0" encoding="utf-8"?>
<svg version="1.1" xmlns:xlink="http://www.w3.org/1999/xlink" width="27px" height="14px" xmlns="http://www.w3.org/2000/svg">
  <g transform="matrix(1 0 0 1 -248 -262 )">
    <path d="M 14.1840401785715 0.898996655518344  C 14.8108258928573 0.801605351170547  15.4617187499998 0.751036789297604  16.1156249999999 0.751036789297604  C 17.1703124999999 0.751036789297604  18.1918526785715 0.878394648829394  19.1531249999998 1.13123745819405  C 20.0812500000002 1.3747157190636  20.9159598214285 1.72494983277587  21.6331473214284 2.17070234113707  C 22.3503348214287 2.61645484949834  22.9138392857143 3.13525083612042  23.3055803571429 3.71210702341144  C 23.712388392857 4.30956521739123  23.9172991071428 4.9444816053512  23.9172991071428 5.59999999999999  C 23.9172991071428 5.74795986622073  23.9052455357144 5.89966555183944  23.8841517857144 6.0513712374582  L 23.8359375 6.37725752508362  L 24.1854910714285 6.62073578595317  C 25.2010044642858 7.3268227424749  25.7614955357143 8.23705685618728  25.7614955357143 9.18474916387964  C 25.7614955357143 10.2036120401338  25.1286830357143 11.1625418060201  23.9775669642856 11.8873578595317  C 22.8294642857144 12.6103010033445  21.2956473214287 13.0167224080268  19.6593750000002 13  L 7.01819196428565 13  C 5.46629464285702 13.0111036789298  4.0108258928571 12.6177926421404  2.92299107142863 11.9285618729098  C 1.83515625000015 11.2374581939799  1.23549107142863 10.3234782608696  1.23549107142863 9.35518394648837  C 1.23549107142863 8.22769230769235  2.05212053571435 7.17698996655524  3.4744419642858 6.47464882943141  L 3.9053571428571 6.26113712374586  L 3.92946428571427 5.91839464882946  C 3.98069196428573 5.17859531772583  4.48091517857145 4.48936454849489  5.33973214285733 3.97431438127084  C 6.20156249999992 3.45926421404679  7.33761160714275 3.17458193979933  8.5339285714287 3.17458193979933  C 8.57310267857137 3.17458193979933  8.61529017857153 3.17458193979933  8.6604910714284 3.17645484949826  L 9.31439732142847 3.18769230769229  L 9.68504464285702 2.85244147157189  C 10.3901785714285 2.21752508361205  11.3393973214285 1.68936454849492  12.4302455357141 1.32414715719066  C 12.9847098214284 1.13872909698993  13.5753348214286 0.996387959866262  14.1840401785715 0.898996655518344  Z M 25.1256696428572 5.60187290969891  C 25.1256696428572 2.5096989966555  21.09375 0.00187290969892309  16.1156249999999 0.00187290969892309  C 13.0359374999998 0.00187290969892309  10.317857142857 0.962675585284238  8.69062500000015 2.42916387959868  C 8.6393973214287 2.42916387959868  8.58515625000015 2.4272909698997  8.5339285714287 2.4272909698997  C 5.40602678571427 2.4272909698997  2.8536830357142 3.96307692307687  2.72410714285702 5.88842809364547  C 1.08180803571427 6.69939799331106  0.0301339285713738 7.95050167224078  0.0301339285713738 9.35518394648837  C 0.0301339285713738 11.767491638796  3.13392857142863 13.7284280936455  6.99408482142847 13.7808695652174  L 6.99408482142847 13.7827424749165  L 19.6774553571427 13.7827424749165  C 23.7154017857141 13.7471571906355  26.9698660714286 11.7038127090301  26.9698660714286 9.18662207357856  C 26.9698660714286 8.01043478260864  26.2587053571429 6.93538461538467  25.0864955357141 6.1225418060201  C 25.1106026785713 5.95023411371238  25.1256696428572 5.77792642140472  25.1256696428572 5.60187290969891  Z M 19.40625 9.92642140468232  L 13.4397321428573 6.21806020066891  L 7.47321428571412 9.92642140468232  L 8.3260044642858 10.4564548494984  L 12.8370535714286 7.65270903010038  L 12.8370535714286 13.3557190635451  L 14.0424107142859 13.3557190635451  L 14.0424107142859 7.65270903010038  L 18.5534598214287 10.4564548494984  L 19.40625 9.92642140468232  Z " fill-rule="nonzero" fill="#ffffff" stroke="none" transform="matrix(1 0 0 1 248 262 )" />
  </g>
</svg>