<?xml version="1.0" encoding="utf-8"?>
<svg version="1.1" xmlns:xlink="http://www.w3.org/1999/xlink" width="23px" height="14px" xmlns="http://www.w3.org/2000/svg">
  <g transform="matrix(1 0 0 1 -481 -263 )">
    <path d="M 12.0827008928572 0.898996655518344  C 12.6166294642858 0.801605351170547  13.1710937499999 0.751036789297604  13.7281249999999 0.751036789297604  C 14.6265624999999 0.751036789297604  15.4967633928572 0.878394648829394  16.3156249999999 1.13123745819405  C 17.1062500000001 1.3747157190636  17.8172991071428 1.72494983277587  18.4282366071427 2.17070234113707  C 19.039174107143 2.61645484949834  19.5191964285714 3.13525083612042  19.8529017857143 3.71210702341144  C 20.1994419642856 4.30956521739123  20.3739955357143 4.9444816053512  20.3739955357143 5.59999999999999  C 20.3739955357143 5.74795986622073  20.3637276785716 5.89966555183944  20.3457589285715 6.0513712374582  L 20.3046875 6.37725752508362  L 20.6024553571428 6.62073578595317  C 21.4675223214286 7.3268227424749  21.9449776785714 8.23705685618728  21.9449776785714 9.18474916387964  C 21.9449776785714 10.2036120401338  21.4059151785714 11.1625418060201  20.4253348214285 11.8873578595317  C 19.4473214285715 12.6103010033445  18.140736607143 13.0167224080268  16.7468750000001 13  L 5.97845982142852 13  C 4.65647321428561 13.0111036789298  3.41662946428568 12.6177926421404  2.4899553571429 11.9285618729098  C 1.56328125000013 11.2374581939799  1.0524553571429 10.3234782608696  1.0524553571429 9.35518394648837  C 1.0524553571429 8.22769230769235  1.74810267857148 7.17698996655524  2.95970982142865 6.47464882943141  L 3.32678571428568 6.26113712374586  L 3.34732142857142 5.91839464882946  C 3.39095982142858 5.17859531772583  3.81707589285716 4.48936454849489  4.54866071428587 3.97431438127084  C 5.28281249999993 3.45926421404679  6.25055803571419 3.17458193979933  7.26964285714297 3.17458193979933  C 7.3030133928571 3.17458193979933  7.33895089285723 3.17458193979933  7.37745535714271 3.17645484949826  L 7.93448660714277 3.18769230769229  L 8.25022321428561 2.85244147157189  C 8.85089285714284 2.21752508361205  9.65948660714284 1.68936454849492  10.5887276785713 1.32414715719066  C 11.0610491071427 1.13872909698993  11.5641741071429 0.996387959866262  12.0827008928572 0.898996655518344  Z M 21.4033482142857 5.60187290969891  C 21.4033482142857 2.5096989966555  17.96875 0.00187290969892309  13.7281249999999 0.00187290969892309  C 11.1046874999999 0.00187290969892309  8.78928571428561 0.962675585284238  7.40312500000013 2.42916387959868  C 7.35948660714297 2.42916387959868  7.31328125000013 2.4272909698997  7.26964285714297 2.4272909698997  C 4.60513392857142 2.4272909698997  2.43091517857135 3.96307692307687  2.32053571428561 5.88842809364547  C 0.921540178571419 6.69939799331106  0.0256696428570962 7.95050167224078  0.0256696428570962 9.35518394648837  C 0.0256696428570962 11.767491638796  2.6696428571429 13.7284280936455  5.95792410714277 13.7808695652174  L 5.95792410714277 13.7827424749165  L 16.7622767857142 13.7827424749165  C 20.2020089285713 13.7471571906355  22.9743303571429 11.7038127090301  22.9743303571429 9.18662207357856  C 22.9743303571429 8.01043478260864  22.3685267857143 6.93538461538467  21.3699776785713 6.1225418060201  C 21.390513392857 5.95023411371238  21.4033482142857 5.77792642140472  21.4033482142857 5.60187290969891  Z M 16.53125 9.92642140468232  L 11.4486607142858 6.21806020066891  L 6.36607142857129 9.92642140468232  L 7.09252232142865 10.4564548494984  L 10.9352678571429 7.65270903010038  L 10.9352678571429 13.3557190635451  L 11.9620535714287 13.3557190635451  L 11.9620535714287 7.65270903010038  L 15.804799107143 10.4564548494984  L 16.53125 9.92642140468232  Z " fill-rule="nonzero" fill="#ffffff" stroke="none" transform="matrix(1 0 0 1 481 263 )" />
  </g>
</svg>