<?xml version="1.0" encoding="utf-8"?>
<svg version="1.1" xmlns:xlink="http://www.w3.org/1999/xlink" width="82px" height="32px" xmlns="http://www.w3.org/2000/svg">
  <g transform="matrix(1 0 0 1 -1171 -942 )">
    <path d="M 1172 946  A 3 3 0 0 1 1175 943 L 1249 943  A 3 3 0 0 1 1252 946 L 1252 970  A 3 3 0 0 1 1249 973 L 1175 973  A 3 3 0 0 1 1172 970 L 1172 946  Z " fill-rule="nonzero" fill="#ffffff" stroke="none" />
    <path d="M 1171.5 946  A 3.5 3.5 0 0 1 1175 942.5 L 1249 942.5  A 3.5 3.5 0 0 1 1252.5 946 L 1252.5 970  A 3.5 3.5 0 0 1 1249 973.5 L 1175 973.5  A 3.5 3.5 0 0 1 1171.5 970 L 1171.5 946  Z " stroke-width="1" stroke-dasharray="3,1" stroke="#d9d9d9" fill="none" stroke-dashoffset="0.5" />
  </g>
</svg>