<?xml version="1.0" encoding="utf-8"?>
<svg version="1.1" xmlns:xlink="http://www.w3.org/1999/xlink" width="136px" height="39px" xmlns="http://www.w3.org/2000/svg">
  <defs>
    <mask fill="white" id="clip11">
      <path d="M 136 33.4285714285714  L 136 5.57142857142857  C 136 2.45142857142857  132.26 0  127.5 0  L 0 0  L 0 39  L 127.5 39  C 132.26 39  136 36.5485714285714  136 33.4285714285714  Z " fill-rule="evenodd" />
    </mask>
  </defs>
  <g transform="matrix(1 0 0 1 -948 -109 )">
    <path d="M 136 33.4285714285714  L 136 5.57142857142857  C 136 2.45142857142857  132.26 0  127.5 0  L 0 0  L 0 39  L 127.5 39  C 132.26 39  136 36.5485714285714  136 33.4285714285714  Z " fill-rule="nonzero" fill="#ffffff" stroke="none" transform="matrix(1 0 0 1 948 109 )" />
    <path d="M 136 33.4285714285714  L 136 5.57142857142857  C 136 2.45142857142857  132.26 0  127.5 0  L 0 0  L 0 39  L 127.5 39  C 132.26 39  136 36.5485714285714  136 33.4285714285714  Z " stroke-width="2" stroke="#d9d9d9" fill="none" transform="matrix(1 0 0 1 948 109 )" mask="url(#clip11)" />
  </g>
</svg>