<?xml version="1.0" encoding="utf-8"?>
<svg version="1.1" xmlns:xlink="http://www.w3.org/1999/xlink" width="146px" height="39px" xmlns="http://www.w3.org/2000/svg">
  <defs>
    <mask fill="white" id="clip12">
      <path d="M 146 33.4285714285714  L 146 5.57142857142857  C 146 2.45142857142857  141.985 0  136.875 0  L 0 0  L 0 39  L 136.875 39  C 141.985 39  146 36.5485714285714  146 33.4285714285714  Z " fill-rule="evenodd" />
    </mask>
  </defs>
  <g transform="matrix(1 0 0 1 -317 -114 )">
    <path d="M 146 33.4285714285714  L 146 5.57142857142857  C 146 2.45142857142857  141.985 0  136.875 0  L 0 0  L 0 39  L 136.875 39  C 141.985 39  146 36.5485714285714  146 33.4285714285714  Z " fill-rule="nonzero" fill="#ffffff" stroke="none" transform="matrix(1 0 0 1 317 114 )" />
    <path d="M 146 33.4285714285714  L 146 5.57142857142857  C 146 2.45142857142857  141.985 0  136.875 0  L 0 0  L 0 39  L 136.875 39  C 141.985 39  146 36.5485714285714  146 33.4285714285714  Z " stroke-width="2" stroke="#d9d9d9" fill="none" transform="matrix(1 0 0 1 317 114 )" mask="url(#clip12)" />
  </g>
</svg>